<svg width="250" height="257" viewBox="0 0 250 257" fill="none" xmlns="http://www.w3.org/2000/svg">
<path fill-rule="evenodd" clip-rule="evenodd" d="M217.961 46.2293C235.582 54.2553 246.661 70.9761 249.331 93.3152C250.399 101.743 250.132 110.705 248.931 119.667C245.193 146.555 232.244 173.442 215.024 186.952C201.943 197.118 185.257 202.068 168.304 204.342C158.025 205.813 147.613 206.215 137.868 206.215C134.397 206.215 130.927 206.215 127.59 206.081C103.028 205.412 71.7914 202.603 49.2319 186.551C18.935 165.018 22.3995 119.281 25.4694 78.7548L25.4709 78.7346C25.5104 78.2257 25.5498 77.7177 25.5892 77.2106C26.6157 63.9902 27.5919 51.4176 27.2063 40.2097C27.7402 23.4889 10.3867 20.1447 8.3844 19.8772C3.04486 18.9408 -0.692816 13.8576 0.108115 8.37319C1.04253 3.02251 6.11509 -0.5892 11.4546 0.0796353C24.0025 1.95237 47.363 12.6537 47.2295 39.4071C47.2295 40.0797 47.2412 40.7516 47.2576 41.4232C47.3216 44.0424 49.5437 46.1325 52.1556 46.0166C77.8731 44.8391 103.468 43.6672 129.191 42.7513C143.608 42.2162 157.891 41.8149 172.308 41.5474C173.51 41.5474 174.678 41.514 175.846 41.4805C177.014 41.4471 178.182 41.4136 179.383 41.4136L179.873 41.3974C191.896 40.9991 205.318 40.5544 217.961 46.2293ZM136.8 113.648H173.777C179.383 113.648 183.788 109.1 183.788 103.615C183.788 98.1309 179.383 93.5828 173.777 93.5828H136.8C131.327 93.5828 126.789 98.1309 126.789 103.615C126.789 109.1 131.327 113.648 136.8 113.648Z" fill="black"/>
<path d="M60.2273 222.361C50.6962 222.361 42.9405 230.119 42.9405 239.67C42.9405 249.221 50.6962 256.993 60.2273 256.993C69.7583 256.993 77.5007 249.221 77.5007 239.67C77.5007 230.119 69.7583 222.361 60.2273 222.361Z" fill="black"/>
<path d="M198.135 222.361C188.603 222.361 180.861 230.119 180.861 239.67C180.861 249.221 188.603 256.993 198.135 256.993C207.666 256.993 215.421 249.221 215.421 239.67C215.421 230.119 207.666 222.361 198.135 222.361Z" fill="black"/>
</svg>
