<svg width="250" height="224" viewBox="0 0 250 224" fill="none" xmlns="http://www.w3.org/2000/svg">
<path fill-rule="evenodd" clip-rule="evenodd" d="M195.729 95.7048H195.417C190.24 95.5179 186.177 91.2068 186.352 86.0483C186.752 74.1988 180.938 66.511 170.797 65.4768C165.646 64.9535 161.895 60.3682 162.42 55.2347C162.958 50.1136 167.584 46.3382 172.71 46.8864C192.816 48.9299 205.832 64.9161 205.095 86.6713C204.92 91.7301 200.756 95.7048 195.729 95.7048ZM194.704 3.32619C173.198 -3.52683 143.427 -0.685941 124.847 20.3217C105.329 -0.536421 76.5703 -3.56421 55.2141 3.33865C6.26259 19.0383 -9.0043 75.557 4.9247 118.905V118.918C26.906 187.087 99.9895 223.856 125.022 223.856C147.366 223.856 223.35 187.772 245.081 118.905C259.01 75.5694 243.706 19.0507 194.704 3.32619Z" fill="black"/>
</svg>
