<svg width="1920" height="1123" viewBox="0 0 1920 1123" fill="none" xmlns="http://www.w3.org/2000/svg">
<rect width="1920" height="1080" fill="url(#paint0_linear_133_2)"/>
<path d="M1095.52 214.53L1080.49 211.37C1071.33 209.445 1061.84 209.7 1052.8 212.113C1034.79 216.921 1015.57 213.041 1000.83 201.625L999.781 200.811C992.317 195.029 983.639 191.017 974.4 189.075L969.794 188.107C949.683 183.88 928.73 188.651 912.43 201.166C903.985 207.651 897.12 215.967 892.353 225.489L887.353 235.474C878.666 252.824 874.353 272.035 874.79 291.433L874.979 299.859C875.361 316.781 878.548 333.522 884.411 349.399L896.139 381.158L902.271 397.648C907.322 411.232 914.031 424.14 922.246 436.079L927.429 443.614C929.54 446.682 931.904 449.568 934.495 452.243C954.542 472.93 985.588 478.447 1011.53 465.932L1012.54 465.445L1027.87 457.855C1041.96 450.877 1055.22 442.337 1067.4 432.396C1077.28 424.33 1086.41 415.38 1094.66 405.656L1108.69 389.135C1115.75 380.822 1122.09 371.922 1127.63 362.531L1140.09 341.436C1148.24 327.633 1152.79 312.005 1153.33 295.985L1153.58 288.576C1154.11 272.981 1149.63 257.626 1140.81 244.756C1130.17 229.228 1113.94 218.401 1095.52 214.53Z" fill="url(#paint1_radial_133_2)"/>
<path d="M1030.75 213.883C1067.31 186.234 1119.36 193.46 1147.01 230.023C1110.45 257.672 1058.4 250.446 1030.75 213.883Z" fill="#5DAB53"/>
<path d="M909.912 183.575C949.611 160.657 1000.37 174.261 1023.29 213.961C983.591 236.879 932.829 223.274 909.912 183.575Z" fill="url(#paint2_linear_133_2)"/>
<path d="M928.999 257.876C928.959 232.025 949.883 211.038 975.734 210.998L1025.87 210.922C1025.91 236.772 1004.98 257.76 979.134 257.799L928.999 257.876Z" fill="url(#paint3_linear_133_2)"/>
<path d="M1081.97 281.459C1091.49 258.146 1080.31 231.525 1057 222L1029.09 210.597C1019.57 233.911 1030.75 260.531 1054.06 270.056L1081.97 281.459Z" fill="url(#paint4_linear_133_2)"/>
<path d="M1030.79 214.687C1036.23 186.636 1063.37 168.304 1091.42 173.74L1107.84 176.922C1102.41 204.972 1075.26 223.305 1047.21 217.869L1030.79 214.687Z" fill="url(#paint5_linear_133_2)"/>
<path d="M1026.34 213.379C997.771 213.112 974.826 189.735 975.092 161.164L975.248 144.44C1003.82 144.706 1026.76 168.083 1026.5 196.655L1026.34 213.379Z" fill="url(#paint6_linear_133_2)"/>
<path d="M1027.81 213.566C1016.01 200.873 1016.73 181.016 1029.42 169.214L1053.11 147.191C1064.91 159.884 1064.19 179.741 1051.49 191.543L1027.81 213.566Z" fill="url(#paint7_linear_133_2)"/>
<path d="M1016.28 289.781C999.935 278.237 996.044 255.63 1007.59 239.287L1025.59 213.793C1041.94 225.337 1045.83 247.944 1034.29 264.287L1016.28 289.781Z" fill="url(#paint8_linear_133_2)"/>
<g filter="url(#filter0_f_133_2)">
<ellipse cx="1028.5" cy="213.52" rx="17.6074" ry="18.981" transform="rotate(38.7067 1028.5 213.52)" fill="url(#paint9_linear_133_2)"/>
</g>
<path d="M1426.28 243.014L1415.85 240.069C1409.5 238.275 1402.81 237.999 1396.33 239.264C1383.43 241.783 1370.09 238.131 1360.26 229.389L1359.56 228.767C1354.59 224.34 1348.67 221.099 1342.26 219.29L1339.07 218.387C1325.12 214.448 1310.14 216.8 1298.07 224.826C1291.82 228.985 1286.59 234.508 1282.77 240.98L1278.78 247.767C1271.83 259.561 1267.87 272.873 1267.25 286.546L1266.98 292.485C1266.44 304.412 1267.88 316.346 1271.24 327.801L1277.97 350.714L1281.5 362.614C1284.4 372.415 1288.5 381.821 1293.71 390.618L1297 396.169C1298.33 398.429 1299.86 400.574 1301.55 402.58C1314.67 418.101 1336.25 423.473 1355.11 415.91L1355.85 415.616L1367 411.009C1377.25 406.775 1386.99 401.401 1396.04 394.989C1403.38 389.787 1410.23 383.926 1416.51 377.479L1427.17 366.525C1432.54 361.013 1437.43 355.054 1441.78 348.711L1451.56 334.463C1457.96 325.14 1461.91 314.36 1463.06 303.112L1463.59 297.91C1464.71 286.96 1462.29 275.939 1456.7 266.458C1449.96 255.02 1439.06 246.623 1426.28 243.014Z" fill="url(#paint10_radial_133_2)"/>
<path d="M1380.73 239.452C1407.78 221.748 1444.07 229.33 1461.78 256.388C1434.72 274.092 1398.43 266.509 1380.73 239.452Z" fill="#5DAB53"/>
<path d="M1297.14 212.325C1326.18 198.101 1361.25 210.111 1375.48 239.149C1346.44 253.373 1311.37 241.363 1297.14 212.325Z" fill="url(#paint11_linear_133_2)"/>
<path d="M1307.01 265.53C1308.22 247.336 1323.96 233.57 1342.15 234.782L1377.44 237.134C1376.22 255.328 1360.49 269.094 1342.3 267.882L1307.01 265.53Z" fill="url(#paint12_linear_133_2)"/>
<path d="M1413.53 289.466C1421.35 273.516 1414.76 254.245 1398.81 246.423L1379.72 237.06C1371.9 253.01 1378.49 272.28 1394.44 280.102L1413.53 289.466Z" fill="url(#paint13_linear_133_2)"/>
<path d="M1380.72 240.019C1385.89 220.54 1405.87 208.94 1425.35 214.112L1436.76 217.139C1431.59 236.618 1411.6 248.218 1392.12 243.046L1380.72 240.019Z" fill="url(#paint14_linear_133_2)"/>
<path d="M1377.65 238.885C1357.56 237.327 1342.53 219.774 1344.09 199.68L1345 187.918C1365.1 189.476 1380.12 207.029 1378.56 227.123L1377.65 238.885Z" fill="url(#paint15_linear_133_2)"/>
<path d="M1378.67 239.087C1370.98 229.588 1372.44 215.648 1381.94 207.952L1399.66 193.589C1407.36 203.088 1405.9 217.028 1396.4 224.725L1378.67 239.087Z" fill="url(#paint16_linear_133_2)"/>
<path d="M1366.9 292.171C1355.96 283.263 1354.3 267.167 1363.21 256.219L1377.11 239.141C1388.05 248.049 1389.71 264.145 1380.8 275.093L1366.9 292.171Z" fill="url(#paint17_linear_133_2)"/>
<g filter="url(#filter1_f_133_2)">
<ellipse cx="1379.17" cy="239.088" rx="12.4201" ry="13.3889" transform="rotate(42.6064 1379.17 239.088)" fill="url(#paint18_linear_133_2)"/>
</g>
<path d="M1445.36 794.111L1435.88 777.797C1430.1 767.86 1422.07 759.42 1412.43 753.157C1393.23 740.681 1380.95 719.955 1379.25 697.121L1379.12 695.494C1378.26 683.93 1374.78 672.713 1368.95 662.688L1366.05 657.69C1353.36 635.869 1331.78 620.679 1306.95 616.105C1294.09 613.735 1280.86 614.314 1268.25 617.797L1255.03 621.449C1232.06 627.796 1210.98 639.664 1193.65 656.018L1186.12 663.121C1171 677.388 1158.35 694.065 1148.69 712.474L1129.36 749.295L1119.36 768.452C1111.13 784.233 1104.87 800.971 1100.74 818.285L1098.13 829.211C1097.07 833.66 1096.38 838.19 1096.07 842.754C1093.69 878.057 1114.19 910.914 1146.95 924.289L1148.22 924.809L1167.75 932.546C1185.71 939.658 1204.41 944.729 1223.49 947.663C1238.98 950.044 1254.65 951.007 1270.31 950.54L1296.92 949.747C1310.31 949.348 1323.64 947.807 1336.77 945.141L1366.26 939.153C1385.55 935.235 1403.55 926.534 1418.61 913.849L1425.57 907.982C1440.23 895.633 1450.56 878.921 1455.04 860.286C1460.45 837.804 1456.98 814.102 1445.36 794.111Z" fill="url(#paint19_radial_133_2)"/>
<path d="M1394.58 734.861C1448.82 745.268 1484.36 797.674 1473.95 851.913L1473.58 853.826L1471.67 853.459C1417.43 843.052 1381.9 790.646 1392.3 736.407L1392.67 734.494L1394.58 734.861Z" fill="#5DAB53"/>
<path d="M1322.78 599.938C1375.32 616.97 1404.1 673.366 1387.07 725.903L1386.47 727.755L1384.61 727.155C1332.08 710.123 1303.29 653.727 1320.33 601.191L1320.93 599.338L1322.78 599.938Z" fill="url(#paint20_linear_133_2)"/>
<path d="M1268.85 677.865C1292.4 656.566 1328.75 658.389 1350.05 681.938L1391.36 727.608C1367.81 748.907 1331.46 747.084 1310.16 723.535L1268.85 677.865Z" fill="url(#paint21_linear_133_2)"/>
<path d="M1373.16 836.8C1402.26 826.313 1417.35 794.22 1406.86 765.119L1394.31 730.281C1365.21 740.769 1350.12 772.862 1360.61 801.963L1373.16 836.8Z" fill="url(#paint22_linear_133_2)"/>
<path d="M1391.98 735.195C1422.03 717.081 1461.09 726.765 1479.2 756.824L1489.8 774.419C1459.74 792.533 1420.69 782.849 1402.58 752.79L1391.98 735.195Z" fill="url(#paint23_linear_133_2)"/>
<path d="M1389.51 730.061C1366.25 703.779 1368.7 663.619 1394.98 640.361L1410.37 626.747C1433.63 653.029 1431.17 693.189 1404.89 716.447L1389.51 730.061Z" fill="url(#paint24_linear_133_2)"/>
<path d="M1390.54 731.551C1392.41 710.345 1411.12 694.671 1432.33 696.542L1471.9 700.033C1470.03 721.24 1451.32 736.914 1430.12 735.043L1390.54 731.551Z" fill="url(#paint25_linear_133_2)"/>
<path d="M1311.54 783.724C1308.62 759.321 1326.05 737.176 1350.45 734.263L1388.52 729.719C1391.43 754.123 1374.01 776.267 1349.6 779.18L1311.54 783.724Z" fill="url(#paint26_linear_133_2)"/>
<g filter="url(#filter2_f_133_2)">
<ellipse cx="1391.16" cy="732.148" rx="21.6269" ry="23.314" transform="rotate(86.6652 1391.16 732.148)" fill="url(#paint27_linear_133_2)"/>
</g>
<path d="M1020.79 643.292L1013.64 638.259C1009.29 635.194 1004.28 633.194 999.007 632.422C988.512 630.883 979.337 624.532 974.203 615.25L973.837 614.589C971.236 609.888 967.603 605.839 963.211 602.746L961.022 601.204C951.461 594.472 939.437 592.252 928.103 595.128C922.231 596.617 916.772 599.42 912.139 603.324L907.28 607.418C898.837 614.532 892.262 623.603 888.128 633.839L886.332 638.286C882.725 647.216 880.625 656.682 880.118 666.299L879.105 685.536L878.601 695.534C878.186 703.769 878.789 712.025 880.397 720.112L881.411 725.216C881.824 727.294 882.41 729.335 883.163 731.315C888.988 746.636 903.973 756.502 920.349 755.798L920.986 755.77L930.703 755.25C939.636 754.772 948.487 753.291 957.089 750.835C964.069 748.842 970.852 746.217 977.354 742.992L988.401 737.513C993.96 734.755 999.274 731.529 1004.28 727.868L1015.54 719.644C1022.9 714.264 1028.8 707.12 1032.68 698.868L1034.48 695.052C1038.26 687.019 1039.38 677.988 1037.66 669.277C1035.59 658.767 1029.55 649.46 1020.79 643.292Z" fill="url(#paint28_radial_133_2)"/>
<path d="M987.081 628.386C1012.41 622.159 1037.99 637.643 1044.22 662.972C1018.89 669.199 993.308 653.714 987.081 628.386Z" fill="#5DAB53"/>
<path d="M930.743 585.367C956.647 582.318 980.117 600.846 983.166 626.749C957.263 629.798 933.792 611.27 930.743 585.367Z" fill="url(#paint29_linear_133_2)"/>
<path d="M924.008 628.493C929.801 614.974 945.458 608.711 958.977 614.504L985.198 625.741C979.404 639.26 963.748 645.524 950.228 639.73L924.008 628.493Z" fill="url(#paint30_linear_133_2)"/>
<path d="M998.652 675.225C1008.87 665.182 1009.02 648.755 998.977 638.533L986.955 626.296C976.733 636.339 976.588 652.766 986.63 662.988L998.652 675.225Z" fill="url(#paint31_linear_133_2)"/>
<path d="M986.924 628.816C996.074 615.378 1014.39 611.902 1027.82 621.052L1035.69 626.408C1026.54 639.846 1008.23 643.322 994.789 634.172L986.924 628.816Z" fill="url(#paint32_linear_133_2)"/>
<path d="M984.893 627.131C970.02 620.566 963.285 603.187 969.851 588.314L973.694 579.608C988.567 586.174 995.301 603.553 988.736 618.426L984.893 627.131Z" fill="url(#paint33_linear_133_2)"/>
<path d="M985.616 627.559C982.303 618.27 987.147 608.055 996.435 604.741L1013.77 598.558C1017.08 607.847 1012.24 618.063 1002.95 621.376L985.616 627.559Z" fill="url(#paint34_linear_133_2)"/>
<path d="M962.448 664.799C956.503 655.09 959.554 642.4 969.263 636.454L984.408 627.18C990.354 636.889 987.303 649.58 977.593 655.525L962.448 664.799Z" fill="url(#paint35_linear_133_2)"/>
<g filter="url(#filter3_f_133_2)">
<ellipse cx="985.99" cy="627.691" rx="10.0185" ry="10.8" transform="rotate(61.9911 985.99 627.691)" fill="url(#paint36_linear_133_2)"/>
</g>
<defs>
<filter id="filter0_f_133_2" x="1000.35" y="185.063" width="56.3144" height="56.9144" filterUnits="userSpaceOnUse" color-interpolation-filters="sRGB">
<feFlood flood-opacity="0" result="BackgroundImageFix"/>
<feBlend mode="normal" in="SourceGraphic" in2="BackgroundImageFix" result="shape"/>
<feGaussianBlur stdDeviation="5" result="effect1_foregroundBlur_133_2"/>
</filter>
<filter id="filter1_f_133_2" x="1356.29" y="216.134" width="45.7462" height="45.9083" filterUnits="userSpaceOnUse" color-interpolation-filters="sRGB">
<feFlood flood-opacity="0" result="BackgroundImageFix"/>
<feBlend mode="normal" in="SourceGraphic" in2="BackgroundImageFix" result="shape"/>
<feGaussianBlur stdDeviation="5" result="effect1_foregroundBlur_133_2"/>
</filter>
<filter id="filter2_f_133_2" x="1357.85" y="700.514" width="66.6183" height="63.2672" filterUnits="userSpaceOnUse" color-interpolation-filters="sRGB">
<feFlood flood-opacity="0" result="BackgroundImageFix"/>
<feBlend mode="normal" in="SourceGraphic" in2="BackgroundImageFix" result="shape"/>
<feGaussianBlur stdDeviation="5" result="effect1_foregroundBlur_133_2"/>
</filter>
<filter id="filter3_f_133_2" x="965.355" y="607.494" width="41.2699" height="40.3954" filterUnits="userSpaceOnUse" color-interpolation-filters="sRGB">
<feFlood flood-opacity="0" result="BackgroundImageFix"/>
<feBlend mode="normal" in="SourceGraphic" in2="BackgroundImageFix" result="shape"/>
<feGaussianBlur stdDeviation="5" result="effect1_foregroundBlur_133_2"/>
</filter>
<linearGradient id="paint0_linear_133_2" x1="960" y1="0" x2="960" y2="1080" gradientUnits="userSpaceOnUse">
<stop stop-color="#FFE4EF"/>
<stop offset="1" stop-color="#FFD9CA"/>
</linearGradient>
<radialGradient id="paint1_radial_133_2" cx="0" cy="0" r="1" gradientUnits="userSpaceOnUse" gradientTransform="translate(981.149 231.748) rotate(92.721) scale(259.37 163.467)">
<stop stop-color="#FF8F8F"/>
<stop offset="1" stop-color="#FF0000"/>
</radialGradient>
<linearGradient id="paint2_linear_133_2" x1="909.938" y1="184.067" x2="1018.19" y2="213.197" gradientUnits="userSpaceOnUse">
<stop stop-color="#5DAB53"/>
<stop offset="1" stop-color="#547234"/>
</linearGradient>
<linearGradient id="paint3_linear_133_2" x1="1000.11" y1="248.738" x2="942.687" y2="224.338" gradientUnits="userSpaceOnUse">
<stop stop-color="#547234"/>
<stop offset="1" stop-color="#5DAB53"/>
</linearGradient>
<linearGradient id="paint4_linear_133_2" x1="1081.54" y1="281.839" x2="1022.08" y2="210.981" gradientUnits="userSpaceOnUse">
<stop stop-color="#5DAB53"/>
<stop offset="1" stop-color="#547234"/>
</linearGradient>
<linearGradient id="paint5_linear_133_2" x1="1085.56" y1="209.01" x2="1042.33" y2="196.853" gradientUnits="userSpaceOnUse">
<stop stop-color="#5DAB53"/>
<stop offset="1" stop-color="#547234"/>
</linearGradient>
<linearGradient id="paint6_linear_133_2" x1="974.929" y1="178.668" x2="1026.66" y2="179.15" gradientUnits="userSpaceOnUse">
<stop stop-color="#5DAB53"/>
<stop offset="1" stop-color="#547234"/>
</linearGradient>
<linearGradient id="paint7_linear_133_2" x1="1029.77" y1="168.887" x2="1051.14" y2="191.87" gradientUnits="userSpaceOnUse">
<stop stop-color="#5DAB53"/>
<stop offset="1" stop-color="#547234"/>
</linearGradient>
<linearGradient id="paint8_linear_133_2" x1="1006.14" y1="241.336" x2="1035.73" y2="262.238" gradientUnits="userSpaceOnUse">
<stop stop-color="#5DAB53"/>
<stop offset="1" stop-color="#547234"/>
</linearGradient>
<linearGradient id="paint9_linear_133_2" x1="1008.13" y1="214.947" x2="1049.35" y2="210.916" gradientUnits="userSpaceOnUse">
<stop stop-color="#5DAB53"/>
<stop offset="1" stop-color="#547234"/>
</linearGradient>
<radialGradient id="paint10_radial_133_2" cx="0" cy="0" r="1" gradientUnits="userSpaceOnUse" gradientTransform="translate(1282 257.5) rotate(64.2092) scale(165.484 104.296)">
<stop stop-color="#FF8F8F"/>
<stop offset="1" stop-color="#FF0000"/>
</radialGradient>
<linearGradient id="paint11_linear_133_2" x1="1297.14" y1="212.672" x2="1371.92" y2="238.366" gradientUnits="userSpaceOnUse">
<stop stop-color="#5DAB53"/>
<stop offset="1" stop-color="#547234"/>
</linearGradient>
<linearGradient id="paint12_linear_133_2" x1="1357.49" y1="262.511" x2="1318.25" y2="242.585" gradientUnits="userSpaceOnUse">
<stop stop-color="#547234"/>
<stop offset="1" stop-color="#5DAB53"/>
</linearGradient>
<linearGradient id="paint13_linear_133_2" x1="1413.21" y1="289.712" x2="1374.76" y2="236.993" gradientUnits="userSpaceOnUse">
<stop stop-color="#5DAB53"/>
<stop offset="1" stop-color="#547234"/>
</linearGradient>
<linearGradient id="paint14_linear_133_2" x1="1419.54" y1="238.652" x2="1389.7" y2="228.023" gradientUnits="userSpaceOnUse">
<stop stop-color="#5DAB53"/>
<stop offset="1" stop-color="#547234"/>
</linearGradient>
<linearGradient id="paint15_linear_133_2" x1="1343.13" y1="211.991" x2="1379.52" y2="214.812" gradientUnits="userSpaceOnUse">
<stop stop-color="#5DAB53"/>
<stop offset="1" stop-color="#547234"/>
</linearGradient>
<linearGradient id="paint16_linear_133_2" x1="1382.2" y1="207.739" x2="1396.14" y2="224.938" gradientUnits="userSpaceOnUse">
<stop stop-color="#5DAB53"/>
<stop offset="1" stop-color="#547234"/>
</linearGradient>
<linearGradient id="paint17_linear_133_2" x1="1362.09" y1="257.591" x2="1381.92" y2="273.721" gradientUnits="userSpaceOnUse">
<stop stop-color="#5DAB53"/>
<stop offset="1" stop-color="#547234"/>
</linearGradient>
<linearGradient id="paint18_linear_133_2" x1="1364.79" y1="240.095" x2="1393.87" y2="237.252" gradientUnits="userSpaceOnUse">
<stop stop-color="#5DAB53"/>
<stop offset="1" stop-color="#547234"/>
</linearGradient>
<radialGradient id="paint19_radial_133_2" cx="0" cy="0" r="1" gradientUnits="userSpaceOnUse" gradientTransform="translate(1199 665.5) rotate(62.8828) scale(301.66 190.119)">
<stop stop-color="#FF8F8F"/>
<stop offset="1" stop-color="#FF0000"/>
</radialGradient>
<linearGradient id="paint20_linear_133_2" x1="1320.5" y1="599.767" x2="1382.97" y2="722.476" gradientUnits="userSpaceOnUse">
<stop stop-color="#5DAB53"/>
<stop offset="1" stop-color="#547234"/>
</linearGradient>
<linearGradient id="paint21_linear_133_2" x1="1335.67" y1="735.212" x2="1310.7" y2="662.765" gradientUnits="userSpaceOnUse">
<stop stop-color="#547234"/>
<stop offset="1" stop-color="#5DAB53"/>
</linearGradient>
<linearGradient id="paint22_linear_133_2" x1="1372.46" y1="836.719" x2="1388.19" y2="724.197" gradientUnits="userSpaceOnUse">
<stop stop-color="#5DAB53"/>
<stop offset="1" stop-color="#547234"/>
</linearGradient>
<linearGradient id="paint23_linear_133_2" x1="1442.21" y1="780.488" x2="1417.74" y2="731.056" gradientUnits="userSpaceOnUse">
<stop stop-color="#5DAB53"/>
<stop offset="1" stop-color="#547234"/>
</linearGradient>
<linearGradient id="paint24_linear_133_2" x1="1378.88" y1="654.61" x2="1420.99" y2="702.197" gradientUnits="userSpaceOnUse">
<stop stop-color="#5DAB53"/>
<stop offset="1" stop-color="#547234"/>
</linearGradient>
<linearGradient id="paint25_linear_133_2" x1="1432.92" y1="696.593" x2="1429.53" y2="734.991" gradientUnits="userSpaceOnUse">
<stop stop-color="#5DAB53"/>
<stop offset="1" stop-color="#547234"/>
</linearGradient>
<linearGradient id="paint26_linear_133_2" x1="1347.39" y1="734.628" x2="1352.66" y2="778.815" gradientUnits="userSpaceOnUse">
<stop stop-color="#5DAB53"/>
<stop offset="1" stop-color="#547234"/>
</linearGradient>
<linearGradient id="paint27_linear_133_2" x1="1366.13" y1="733.9" x2="1416.76" y2="728.95" gradientUnits="userSpaceOnUse">
<stop stop-color="#5DAB53"/>
<stop offset="1" stop-color="#547234"/>
</linearGradient>
<radialGradient id="paint28_radial_133_2" cx="0" cy="0" r="1" gradientUnits="userSpaceOnUse" gradientTransform="translate(911.5 607.5) rotate(67.0543) scale(148.772 93.7626)">
<stop stop-color="#FF8F8F"/>
<stop offset="1" stop-color="#FF0000"/>
</radialGradient>
<linearGradient id="paint29_linear_133_2" x1="930.647" y1="585.63" x2="980.673" y2="625.203" gradientUnits="userSpaceOnUse">
<stop stop-color="#5DAB53"/>
<stop offset="1" stop-color="#547234"/>
</linearGradient>
<linearGradient id="paint30_linear_133_2" x1="963.227" y1="639.711" x2="938.705" y2="614.043" gradientUnits="userSpaceOnUse">
<stop stop-color="#547234"/>
<stop offset="1" stop-color="#5DAB53"/>
</linearGradient>
<linearGradient id="paint31_linear_133_2" x1="998.341" y1="675.326" x2="983.202" y2="624.919" gradientUnits="userSpaceOnUse">
<stop stop-color="#5DAB53"/>
<stop offset="1" stop-color="#547234"/>
</linearGradient>
<linearGradient id="paint32_linear_133_2" x1="1016.83" y1="638.168" x2="996.968" y2="622.091" gradientUnits="userSpaceOnUse">
<stop stop-color="#5DAB53"/>
<stop offset="1" stop-color="#547234"/>
</linearGradient>
<linearGradient id="paint33_linear_133_2" x1="965.828" y1="597.426" x2="992.758" y2="609.314" gradientUnits="userSpaceOnUse">
<stop stop-color="#5DAB53"/>
<stop offset="1" stop-color="#547234"/>
</linearGradient>
<linearGradient id="paint34_linear_133_2" x1="996.693" y1="604.649" x2="1002.69" y2="621.468" gradientUnits="userSpaceOnUse">
<stop stop-color="#5DAB53"/>
<stop offset="1" stop-color="#547234"/>
</linearGradient>
<linearGradient id="paint35_linear_133_2" x1="968.046" y1="637.2" x2="978.811" y2="654.78" gradientUnits="userSpaceOnUse">
<stop stop-color="#5DAB53"/>
<stop offset="1" stop-color="#547234"/>
</linearGradient>
<linearGradient id="paint36_linear_133_2" x1="974.398" y1="628.503" x2="997.852" y2="626.21" gradientUnits="userSpaceOnUse">
<stop stop-color="#5DAB53"/>
<stop offset="1" stop-color="#547234"/>
</linearGradient>
</defs>
</svg>
