<svg width="1915" height="1150" viewBox="0 0 1915 1150" fill="none" xmlns="http://www.w3.org/2000/svg">
<rect x="-5" width="1920" height="1080" fill="url(#paint0_linear_141_3)"/>
<ellipse cx="778.392" cy="253.453" rx="117.268" ry="112.5" transform="rotate(-36.438 778.392 253.453)" fill="url(#paint1_radial_141_3)"/>
<ellipse cx="909.693" cy="971.036" rx="149.44" ry="133.485" transform="rotate(21.278 909.693 971.036)" fill="url(#paint2_radial_141_3)"/>
<ellipse cx="1367.66" cy="283.154" rx="59.3628" ry="55.4636" transform="rotate(25.9711 1367.66 283.154)" fill="url(#paint3_radial_141_3)"/>
<ellipse cx="1272.7" cy="764.975" rx="42.8445" ry="41.775" transform="rotate(2.607 1272.7 764.975)" fill="url(#paint4_radial_141_3)"/>
<ellipse cx="988.91" cy="640.983" rx="66.122" ry="62.6919" transform="rotate(-25.9947 988.91 640.983)" fill="url(#paint5_radial_141_3)"/>
<path d="M1185.4 930.11C1157.15 931.297 1133.29 909.357 1132.1 881.105L1129.76 825.473C1129.64 822.648 1131.84 820.261 1134.66 820.142C1162.91 818.955 1186.78 840.896 1187.97 869.147L1190.3 924.78C1190.42 927.605 1188.23 929.991 1185.4 930.11Z" fill="url(#paint6_linear_141_3)"/>
<path d="M1211.23 870.961C1192.67 883.875 1167.15 879.294 1154.23 860.729L1128.8 824.171C1127.51 822.314 1127.97 819.762 1129.83 818.471C1148.39 805.557 1173.91 810.138 1186.82 828.703L1212.25 865.261C1213.55 867.117 1213.09 869.669 1211.23 870.961Z" fill="url(#paint7_linear_141_3)"/>
<path d="M1351.85 452.825C1367.02 483.364 1354.55 520.414 1324.01 535.579L1245.73 574.449C1242.68 575.966 1238.97 574.719 1237.46 571.665C1222.29 541.126 1234.76 504.076 1265.3 488.912L1343.58 450.041C1346.63 448.524 1350.34 449.771 1351.85 452.825Z" fill="url(#paint8_linear_141_3)"/>
<path d="M1454.67 623.184C1427.47 661.695 1374.2 670.86 1335.69 643.656L1236.97 573.923C1233.12 571.203 1232.21 565.876 1234.93 562.025C1262.13 523.514 1315.4 514.348 1353.91 541.553L1452.63 611.285C1456.48 614.006 1457.39 619.333 1454.67 623.184Z" fill="url(#paint9_linear_141_3)"/>
<path d="M1194.61 367.772C1201.2 420.114 1164.11 467.886 1111.77 474.473L977.598 491.36C972.364 492.019 967.587 488.31 966.928 483.076C960.34 430.734 997.431 382.962 1049.77 376.375L1183.94 359.488C1189.17 358.829 1193.95 362.538 1194.61 367.772Z" fill="url(#paint10_linear_141_3)"/>
<path d="M1128.06 278.974C1146.82 376.087 1083.3 470.022 986.19 488.783C976.479 490.659 967.085 484.307 965.209 474.596L948.94 390.384C930.179 293.271 993.696 199.337 1090.81 180.575C1100.52 178.699 1109.91 185.051 1111.79 194.762L1128.06 278.974Z" fill="url(#paint11_linear_141_3)"/>
<defs>
<linearGradient id="paint0_linear_141_3" x1="955" y1="0" x2="955" y2="1080" gradientUnits="userSpaceOnUse">
<stop stop-color="#FFD9CA"/>
<stop offset="1" stop-color="#FFD9CA"/>
</linearGradient>
<radialGradient id="paint1_radial_141_3" cx="0" cy="0" r="1" gradientUnits="userSpaceOnUse" gradientTransform="translate(670.296 253.453) rotate(-19.9657) scale(212.591 176.468)">
<stop stop-color="#FF8455"/>
<stop offset="1" stop-color="#FEB93C"/>
</radialGradient>
<radialGradient id="paint2_radial_141_3" cx="0" cy="0" r="1" gradientUnits="userSpaceOnUse" gradientTransform="translate(771.941 971.036) rotate(-18.6885) scale(268.805 211.029)">
<stop stop-color="#FF8455"/>
<stop offset="1" stop-color="#FEB93C"/>
</radialGradient>
<radialGradient id="paint3_radial_141_3" cx="0" cy="0" r="1" gradientUnits="userSpaceOnUse" gradientTransform="translate(1312.94 283.154) rotate(-19.4845) scale(107.293 87.263)">
<stop stop-color="#FF8455"/>
<stop offset="1" stop-color="#FEB93C"/>
</radialGradient>
<radialGradient id="paint4_radial_141_3" cx="0" cy="0" r="1" gradientUnits="userSpaceOnUse" gradientTransform="translate(1233.21 764.975) rotate(-20.266) scale(77.8206 65.403)">
<stop stop-color="#FF8455"/>
<stop offset="1" stop-color="#FEB93C"/>
</radialGradient>
<radialGradient id="paint5_radial_141_3" cx="0" cy="0" r="1" gradientUnits="userSpaceOnUse" gradientTransform="translate(927.959 640.983) rotate(-19.7504) scale(119.708 98.4727)">
<stop stop-color="#FF8455"/>
<stop offset="1" stop-color="#FEB93C"/>
</radialGradient>
<linearGradient id="paint6_linear_141_3" x1="1169.39" y1="806.587" x2="1122.13" y2="834.577" gradientUnits="userSpaceOnUse">
<stop stop-color="#00DA3B"/>
<stop offset="1" stop-color="#007420"/>
</linearGradient>
<linearGradient id="paint7_linear_141_3" x1="1147.46" y1="794.428" x2="1127.55" y2="833.592" gradientUnits="userSpaceOnUse">
<stop stop-color="#00DA3B"/>
<stop offset="1" stop-color="#007420"/>
</linearGradient>
<linearGradient id="paint8_linear_141_3" x1="1229.58" y1="528.092" x2="1282.84" y2="570.569" gradientUnits="userSpaceOnUse">
<stop stop-color="#00DA3B"/>
<stop offset="1" stop-color="#007420"/>
</linearGradient>
<linearGradient id="paint9_linear_141_3" x1="1282.78" y1="523.819" x2="1266.07" y2="616.533" gradientUnits="userSpaceOnUse">
<stop stop-color="#00DA3B"/>
<stop offset="1" stop-color="#007420"/>
</linearGradient>
<linearGradient id="paint10_linear_141_3" x1="977.625" y1="415.406" x2="1033.78" y2="504.605" gradientUnits="userSpaceOnUse">
<stop stop-color="#00DA3B"/>
<stop offset="1" stop-color="#007420"/>
</linearGradient>
<linearGradient id="paint11_linear_141_3" x1="945.484" y1="290.102" x2="1103.9" y2="354.738" gradientUnits="userSpaceOnUse">
<stop stop-color="#00DA3B"/>
<stop offset="1" stop-color="#007420"/>
</linearGradient>
</defs>
</svg>
