<svg width="1915" height="1112" viewBox="0 0 1915 1112" fill="none" xmlns="http://www.w3.org/2000/svg">
<rect x="-5" y="4" width="1920" height="1080" fill="url(#paint0_linear_166_7)"/>
<path d="M741.668 518.619C741.074 517.355 741.925 515.888 743.317 515.775L751.268 515.135L758.352 515.308C759.213 515.329 759.991 514.797 760.283 513.988L761.491 510.639C761.89 509.532 763.153 509.008 764.218 509.505L768.804 511.647C770.015 512.212 771.43 511.453 771.628 510.131L772.267 505.871C772.441 504.711 773.571 503.949 774.711 504.223L779.262 505.315C780.02 505.497 780.815 505.221 781.299 504.609L785.788 498.918L791.357 493.208C792.332 492.208 794.006 492.49 794.599 493.754L797.398 499.712C797.591 500.123 797.639 500.588 797.533 501.029L795.999 507.421C795.87 507.958 795.969 508.524 796.272 508.986L798.119 511.799C798.215 511.945 798.33 512.079 798.462 512.196L801.594 514.98C801.784 515.15 802.005 515.281 802.244 515.367L806.556 516.923C806.812 517.015 807.094 517.002 807.34 516.886V516.886C808.259 516.454 809.18 517.477 808.655 518.346L805.87 522.953C805.735 523.176 805.558 523.371 805.348 523.526L795.24 530.998L783.96 539.035C783.764 539.174 783.545 539.277 783.312 539.339L769.925 542.89L757.721 545.9C757.468 545.962 757.204 545.975 756.946 545.936L753.862 545.474C753.201 545.374 752.633 544.951 752.349 544.346L751.637 542.832C751.353 542.226 751.39 541.519 751.736 540.947L753.246 538.449C753.446 538.117 753.546 537.733 753.533 537.346L753.396 533.366C753.39 533.19 753.361 533.016 753.31 532.849L752.324 529.631C752.162 529.103 751.79 528.666 751.294 528.422L745.395 525.522C744.987 525.322 744.66 524.989 744.467 524.578L741.668 518.619Z" fill="url(#paint1_linear_166_7)"/>
<ellipse cx="806.838" cy="591.567" rx="83.9077" ry="75.0084" transform="rotate(-25.1627 806.838 591.567)" fill="url(#paint2_linear_166_7)"/>
<path d="M827.831 137.848C828.412 136.579 830.082 136.28 831.067 137.27L839.308 145.553L845.58 153.341C846.119 154.011 847.028 154.261 847.835 153.961L853.472 151.863C854.575 151.453 855.791 152.078 856.1 153.212L858.318 161.367C858.669 162.657 860.162 163.246 861.299 162.543L867.626 158.633C868.623 158.016 869.935 158.386 870.463 159.434L873.82 166.094C874.171 166.791 874.895 167.22 875.675 167.193L885.829 166.843L897.485 167.665C898.878 167.763 899.744 169.222 899.163 170.492L894.978 179.635C894.79 180.048 894.466 180.384 894.06 180.589L885.708 184.799C885.215 185.047 884.847 185.488 884.69 186.018L883.302 190.717C883.252 190.885 883.225 191.059 883.221 191.235L883.079 197.077C883.073 197.331 883.115 197.585 883.204 197.823L885.394 203.709C885.521 204.051 885.779 204.328 886.111 204.48C887.349 205.047 887.101 206.876 885.756 207.091L878.493 208.254C878.235 208.296 877.971 208.286 877.717 208.226L861.176 204.322L843.051 199.707C842.818 199.648 842.598 199.547 842.401 199.409L827.061 188.71L813.293 178.744C813.082 178.591 812.902 178.398 812.765 178.176L810.303 174.192C809.951 173.624 809.907 172.917 810.186 172.309L811.424 169.603C811.702 168.995 812.266 168.566 812.926 168.46L817.353 167.751C817.736 167.69 818.093 167.519 818.381 167.258L822.554 163.472C822.684 163.354 822.798 163.22 822.893 163.072L825.542 158.95C825.84 158.485 825.933 157.918 825.799 157.382L823.525 148.31C823.415 147.87 823.458 147.405 823.647 146.992L827.831 137.848Z" fill="url(#paint3_linear_166_7)"/>
<ellipse cx="809.214" cy="268.689" rx="112.553" ry="100.616" transform="rotate(24.5901 809.214 268.689)" fill="url(#paint4_linear_166_7)"/>
<path d="M1084.88 738.771C1085.85 737.769 1087.53 738.048 1088.12 739.31L1095.54 755.021L1100.31 768.676C1100.6 769.489 1101.37 770.029 1102.23 770.016L1112.01 769.875C1113.19 769.858 1114.12 770.854 1114.03 772.027L1113 785.639C1112.89 786.972 1114.1 788.027 1115.41 787.746L1127.38 785.173C1128.52 784.926 1129.63 785.715 1129.78 786.878L1131.24 798.509C1131.34 799.283 1131.88 799.929 1132.62 800.165L1146.56 804.59L1162.48 811.55C1163.76 812.109 1164.09 813.774 1163.12 814.776L1152.4 825.809C1152.08 826.134 1151.66 826.343 1151.21 826.399L1137.7 828.099C1137.16 828.168 1136.66 828.46 1136.34 828.906L1132.07 834.772C1131.96 834.913 1131.88 835.068 1131.82 835.232L1128.82 843.057C1128.73 843.294 1128.68 843.547 1128.69 843.802L1128.81 852.683C1128.82 853.191 1129.03 853.674 1129.39 854.028C1130.75 855.347 1129.57 857.627 1127.71 857.283L1117.5 855.394C1117.25 855.346 1117 855.249 1116.78 855.107L1096.8 842.201L1075.09 827.63C1074.89 827.496 1074.72 827.327 1074.58 827.131L1059.39 805.85L1045.91 786.252C1045.76 786.037 1045.65 785.794 1045.6 785.539L1044.11 778.614C1043.97 777.96 1044.16 777.279 1044.63 776.8L1048.1 773.233C1048.56 772.753 1049.24 772.538 1049.89 772.66L1056.66 773.912C1057.04 773.983 1057.44 773.941 1057.8 773.792L1065.34 770.648C1065.5 770.58 1065.65 770.492 1065.79 770.384L1071.53 765.949C1071.97 765.611 1072.25 765.108 1072.3 764.558L1073.61 751.005C1073.65 750.553 1073.85 750.129 1074.16 749.804L1084.88 738.771Z" fill="url(#paint5_linear_166_7)"/>
<ellipse cx="998.735" cy="902.309" rx="156.5" ry="139.902" transform="rotate(44.1717 998.735 902.309)" fill="url(#paint6_linear_166_7)"/>
<path d="M115.299 516.938C113.952 516.572 113.385 514.972 114.201 513.839L127.876 494.858L140.662 480.547C141.235 479.905 141.334 478.968 140.906 478.221L134.067 466.272C133.483 465.252 133.901 463.95 134.97 463.46L152.387 455.489C153.603 454.933 153.941 453.364 153.062 452.356L141.677 439.304C140.906 438.42 141.058 437.065 142.005 436.374L155.117 426.803C155.747 426.343 156.053 425.559 155.899 424.794L152.09 405.82L149.912 382.528C149.782 381.138 151.081 380.045 152.428 380.412L172.71 385.928C173.148 386.047 173.533 386.312 173.801 386.678L184.488 401.32C184.814 401.766 185.309 402.058 185.857 402.126L195.527 403.328C195.701 403.349 195.878 403.348 196.052 403.324L207.007 401.787C207.259 401.752 207.502 401.668 207.723 401.542L217.995 395.662C218.455 395.399 218.792 394.963 218.931 394.452L219.402 392.721C219.921 390.812 222.601 390.735 223.228 392.612L228.039 407.008C228.121 407.256 228.155 407.518 228.137 407.778L226.028 438.677L223.117 472.577C223.096 472.816 223.033 473.05 222.929 473.267L208.271 503.972L194.44 531.684C194.324 531.918 194.162 532.126 193.966 532.298L186.713 538.624C186.209 539.063 185.519 539.222 184.874 539.046L178.035 537.187C177.39 537.011 176.875 536.525 176.663 535.891L173.676 526.952C173.553 526.584 173.326 526.259 173.022 526.018L164.518 519.275C164.381 519.166 164.229 519.076 164.068 519.006L155.121 515.145C154.614 514.926 154.039 514.926 153.533 515.146L136.902 522.359C136.485 522.539 136.019 522.573 135.581 522.454L115.299 516.938Z" fill="url(#paint7_linear_166_7)"/>
<ellipse cx="355.837" cy="512.229" rx="203" ry="181.47" transform="rotate(-74.7861 355.837 512.229)" fill="url(#paint8_linear_166_7)"/>
<path d="M1112.55 523.013C1111.25 523.515 1109.84 522.561 1109.83 521.164L1109.55 489.776L1112 464.424C1112.08 463.567 1111.6 462.754 1110.82 462.405L1093.4 454.67C1092.32 454.192 1091.89 452.895 1092.46 451.868L1105.35 428.753C1106 427.585 1105.34 426.12 1104.04 425.828L1080.55 420.565C1079.41 420.308 1078.73 419.127 1079.08 418.009L1085.8 396.823C1086.04 396.08 1085.82 395.267 1085.24 394.741L1066.31 377.466L1045.46 353.999C1044.53 352.955 1044.93 351.306 1046.24 350.804L1072.84 340.561C1073.26 340.398 1073.73 340.384 1074.16 340.521L1097.15 347.814C1097.68 347.981 1098.25 347.923 1098.73 347.654L1110.13 341.288C1110.28 341.202 1110.42 341.097 1110.55 340.974L1121.03 330.767C1121.21 330.589 1121.35 330.378 1121.46 330.146L1127.87 315.699C1128.09 315.215 1128.1 314.664 1127.91 314.169L1126.26 309.876C1125.55 308.029 1127.66 306.382 1129.28 307.524L1147.18 320.179C1147.4 320.33 1147.58 320.521 1147.72 320.741L1169.41 354.961L1192.56 392.948C1192.69 393.153 1192.78 393.379 1192.82 393.615L1201.12 437.321L1207.98 477.251C1208.03 477.509 1208.02 477.772 1207.96 478.027L1205.12 490.711C1204.98 491.363 1204.51 491.9 1203.89 492.14L1194.66 495.695C1194.03 495.936 1193.33 495.848 1192.78 495.462L1182.33 488.075C1182.01 487.851 1181.64 487.724 1181.25 487.71L1166.84 487.172C1166.67 487.165 1166.49 487.182 1166.32 487.221L1153.6 490.142C1153.06 490.265 1152.6 490.606 1152.32 491.083L1140.16 511.912C1139.93 512.304 1139.57 512.607 1139.15 512.77L1112.55 523.013Z" fill="url(#paint9_linear_166_7)"/>
<ellipse cx="1362.66" cy="332.133" rx="264.767" ry="236.685" transform="rotate(-111.06 1362.66 332.133)" fill="url(#paint10_linear_166_7)"/>
<defs>
<linearGradient id="paint0_linear_166_7" x1="955" y1="4" x2="955" y2="1084" gradientUnits="userSpaceOnUse">
<stop stop-color="#FFD9CA"/>
<stop offset="1" stop-color="#FFD9CA"/>
</linearGradient>
<linearGradient id="paint1_linear_166_7" x1="673.16" y1="546.209" x2="752.918" y2="432.39" gradientUnits="userSpaceOnUse">
<stop stop-color="#801C1E"/>
<stop offset="1" stop-color="#E2A299"/>
</linearGradient>
<linearGradient id="paint2_linear_166_7" x1="722.93" y1="592.839" x2="888.314" y2="570.788" gradientUnits="userSpaceOnUse">
<stop stop-color="#801C1E"/>
<stop offset="1" stop-color="#E2A299"/>
</linearGradient>
<linearGradient id="paint3_linear_166_7" x1="739.801" y1="92.5144" x2="925.456" y2="75.5314" gradientUnits="userSpaceOnUse">
<stop stop-color="#801C1E"/>
<stop offset="1" stop-color="#E2A299"/>
</linearGradient>
<linearGradient id="paint4_linear_166_7" x1="696.661" y1="270.394" x2="918.506" y2="240.816" gradientUnits="userSpaceOnUse">
<stop stop-color="#801C1E"/>
<stop offset="1" stop-color="#E2A299"/>
</linearGradient>
<linearGradient id="paint5_linear_166_7" x1="989.9" y1="639.167" x2="1241.03" y2="703.435" gradientUnits="userSpaceOnUse">
<stop stop-color="#801C1E"/>
<stop offset="1" stop-color="#E2A299"/>
</linearGradient>
<linearGradient id="paint6_linear_166_7" x1="842.235" y1="904.68" x2="1150.7" y2="863.553" gradientUnits="userSpaceOnUse">
<stop stop-color="#801C1E"/>
<stop offset="1" stop-color="#E2A299"/>
</linearGradient>
<linearGradient id="paint7_linear_166_7" x1="134.707" y1="466" x2="413.736" y2="366.59" gradientUnits="userSpaceOnUse">
<stop stop-color="#801C1E"/>
<stop offset="1" stop-color="#E2A299"/>
</linearGradient>
<linearGradient id="paint8_linear_166_7" x1="335.006" y1="286.142" x2="460.523" y2="572.148" gradientUnits="userSpaceOnUse">
<stop stop-color="#801C1E"/>
<stop offset="1" stop-color="#E2A299"/>
</linearGradient>
<linearGradient id="paint9_linear_166_7" x1="1189.72" y1="742.624" x2="849.499" y2="465.902" gradientUnits="userSpaceOnUse">
<stop stop-color="#801C1E"/>
<stop offset="1" stop-color="#E2A299"/>
</linearGradient>
<linearGradient id="paint10_linear_166_7" x1="1097.89" y1="336.144" x2="1619.75" y2="266.565" gradientUnits="userSpaceOnUse">
<stop stop-color="#801C1E"/>
<stop offset="1" stop-color="#E2A299"/>
</linearGradient>
</defs>
</svg>
